<svg id="Component_2_1" data-name="Component 2 – 1" xmlns="http://www.w3.org/2000/svg" width="571.917" height="541.868" viewBox="0 0 571.917 541.868">
  <path id="Path_7328" data-name="Path 7328" d="M612.549,297.88a623.364,623.364,0,0,0-15.943-65.15c-19.442-61.983-58.072-124.71-124.457-145.8-48.985-15.563-101.9-4.75-143.313,26.915-64.912,49.7-112.2,117.507-183.273,160.57-59.339,35.939-90.4,94.027-70.437,176.117S161.7,580.485,234.587,574.595c60.622-4.892,123.982.333,176.387,29.765,46.816,26.281,129.57,3.467,198.013-68.4,39.866-41.86,36.018-95.072,23.02-144.849C624,360.465,618.771,329.038,612.549,297.88Z" transform="translate(-69.084 -73.043)" fill="#f92524" opacity="0.08"/>
  <path id="Path_7329" data-name="Path 7329" d="M612.549,297.88a623.364,623.364,0,0,0-15.943-65.15c-19.442-61.983-58.072-124.71-124.457-145.8-48.985-15.563-101.9-4.75-143.313,26.915-64.912,49.7-112.2,117.507-183.273,160.57-59.339,35.939-90.4,94.027-70.437,176.117S161.7,580.485,234.587,574.595c60.622-4.892,123.982.333,176.387,29.765,46.816,26.281,129.57,3.467,198.013-68.4,39.866-41.86,36.018-95.072,23.02-144.849C624,360.465,618.771,329.038,612.549,297.88Z" transform="translate(-69.084 -73.043)" fill="none"/>
  <g id="freepik--Plants--inject-2" transform="translate(8.257)">
    <path id="Path_7330" data-name="Path 7330" d="M143.909,104.157s7.409-5.842,9.294-9.594c1.583-3.166,2.786-7.71,1.124-11.083a6.333,6.333,0,0,0-9.009-2.9c-4.56,2.834-5.05,12.507-3.879,17.162C141.534,98.109,143.83,104.221,143.909,104.157Z" transform="translate(-35.458 -73.154)" fill="#ca4548" opacity="0.61"/>
    <path id="Path_7331" data-name="Path 7331" d="M102.051,133.3c.3.285,5.589,4.1,5.62,4.021s2.945-8.961,2.454-13.141c-.412-3.562-1.932-7.916-5.193-9.9a6.333,6.333,0,0,0-9.1,2.565C93.58,121.728,98.52,130.056,102.051,133.3Z" transform="translate(-62.073 -53.567)" fill="#ca4548" opacity="0.61"/>
    <path id="Path_7332" data-name="Path 7332" d="M207.475,100.75s-27.1,27.991-26.915,62.363,27.5,62.126,27.5,62.126,27.121-27.975,26.915-62.363S207.475,100.75,207.475,100.75Z" transform="translate(-12.327 -60.881)" fill="#ca4548" opacity="0.61"/>
    <path id="Path_7333" data-name="Path 7333" d="M230.8,198.382a10.69,10.69,0,0,0,.982-1.219c1.963-2.992,3.657-7.346,2.391-10.924a6.333,6.333,0,0,0-8.613-3.911c-3.689,1.742-5.494,7.647-5.874,12.476-1.472-.332-2.8-.586-3.942-.792-.475-1.092-.966-2.185-1.472-3.293s-.9-2.3-1.377-3.467c-.649-1.71-1.219-3.515-1.8-5.32,2.137-.95,8.375-3.879,10.7-6.444s4.75-6.713,4.021-10.433a6.333,6.333,0,0,0-7.916-5.161c-5.161,1.583-8.185,10.734-8.28,15.531a17.6,17.6,0,0,0,.174,2.375c-.507-1.773-1.045-3.546-1.5-5.367-1.33-5.145-2.517-10.433-3.721-15.721-.253-1.092-.522-2.2-.776-3.293,1.8-.807,8.6-3.911,11.083-6.6s4.75-6.713,4.021-10.433a6.333,6.333,0,0,0-7.916-5.161c-5.145,1.583-8.169,10.734-8.28,15.531,0,.158.095,1.377.222,2.739-.7-2.866-1.425-5.715-2.248-8.518a110.559,110.559,0,0,0-5.066-14.138c.649-.269,8.692-3.752,11.4-6.745,2.391-2.66,4.75-6.713,4.006-10.433A6.333,6.333,0,0,0,203.1,104.5c-5.145,1.583-8.169,10.734-8.28,15.531,0,.332.4,4.75.586,6.333a.664.664,0,0,1,0-.158,83.179,83.179,0,0,0-7.378-12.745,115.245,115.245,0,0,0-8.154-10.354c-2.676-3.166-5.3-5.731-7.647-8.059-1.282-1.251-2.486-2.375-3.61-3.4h.111c.1,0-2.5-5.985-2.707-6.333-2.406-4.148-9.5-10.75-14.74-9.61a6.333,6.333,0,0,0-4.623,8.249c1.172,3.61,5.161,6.032,8.534,7.2s11.083.617,12.935.443c1.14,1.108,2.359,2.3,3.673,3.626,2.3,2.375,4.86,5.082,7.457,8.2.7.839,1.409,1.757,2.106,2.644-1.488-1.251-3.578-2.913-3.8-3.056-4.037-2.565-13.378-5.161-17.495-1.742a6.333,6.333,0,0,0-.111,9.5c2.691,2.66,7.362,2.976,10.908,2.454s10.291-4.75,11.732-5.589a71.289,71.289,0,0,1,4.528,6.333,82.2,82.2,0,0,1,7.014,12.666c.111.253.19.538.3.792-.633-.744-4.4-4.544-4.75-4.75-3.736-3.008-12.666-6.6-17.21-3.657a6.333,6.333,0,0,0-1.14,9.389c2.391,2.945,6.982,3.768,10.56,3.641,4.132-.142,12.254-4.243,12.555-4.4a112.407,112.407,0,0,1,4.591,13.774c.918,3.467,1.726,7.014,2.486,10.576-.839-.95-4.354-4.481-4.639-4.75-3.736-2.992-12.666-6.6-17.21-3.641a6.333,6.333,0,0,0-1.14,9.388c2.391,2.929,6.982,3.768,10.56,3.641,4.037-.158,11.842-4.053,12.492-4.386l1.045,4.876c1.092,5.3,2.169,10.623,3.388,15.832.427,1.8.9,3.578,1.377,5.351-1.314-1.377-3.752-3.831-3.99-4.021-3.736-2.992-12.666-6.6-17.21-3.641a6.333,6.333,0,0,0-1.14,9.388c2.391,2.929,6.982,3.768,10.56,3.626s10.228-3.261,12.1-4.164c.807,2.945,1.678,5.842,2.676,8.66.459,1.2.839,2.47,1.346,3.594l.76,1.8-.934-.143s-.079,1.678.079,4.4c-3.942-2.8-9.626-5.225-13.331-3.531a6.333,6.333,0,0,0-2.549,9.1,6.523,6.523,0,0,0,.823,1.14,24.667,24.667,0,0,0,5.1,11.368c.206.222,2.881,2.707,4.275,3.942-1.346-.744-2.691-1.457-4.085-2.248-2.011-1.108-4.1-2.359-6.143-3.562l-3.166-1.995c-1.077-.649-2.027-1.409-3.056-2.122-1.488-1.061-2.976-2.248-4.449-3.42,1.251-1.995,4.845-7.916,5.367-11.3s.237-8.2-2.406-10.908a6.333,6.333,0,0,0-9.5,0c-3.451,4.116-.9,13.457,1.662,17.51a17.6,17.6,0,0,0,1.457,1.884c-1.409-1.187-2.818-2.375-4.211-3.641-3.942-3.562-7.916-7.314-11.779-11.083l-2.47-2.327c1.077-1.662,5.019-8,5.573-11.589s.237-8.2-2.407-10.924a6.333,6.333,0,0,0-9.5,0c-3.451,4.116-.9,13.457,1.583,17.526.095.142.855,1.092,1.71,2.153-2.169-1.995-4.354-3.974-6.586-5.858a111.415,111.415,0,0,0-12.017-8.993c.4-.586,5.177-7.916,5.779-11.906.538-3.546.237-8.2-2.406-10.924a6.333,6.333,0,0,0-9.5,0c-3.451,4.116-.9,13.457,1.583,17.526.174.285,2.929,3.721,3.942,4.908l-.142-.095a81.836,81.836,0,0,0-13.188-6.57A115.136,115.136,0,0,0,115.1,157.74c-3.926-1.092-7.584-1.852-10.829-2.5-1.757-.332-3.372-.617-4.876-.855h0s-5.4-3.626-5.763-3.8c-4.291-2.137-13.853-3.736-17.59.111a6.333,6.333,0,0,0,.887,9.5c2.961,2.359,7.631,2.185,11.083,1.282s9.5-5.573,11.083-6.745c1.583.285,3.166.6,5.066.982,3.166.728,6.855,1.583,10.734,2.739,1.045.3,2.137.681,3.166,1.029-1.932-.206-4.591-.443-4.845-.443-4.75.079-14.011,3.071-15.563,8.2a6.333,6.333,0,0,0,5.13,7.916c3.721.728,7.774-1.583,10.449-3.958s6.016-9.594,6.7-11.083c2.375.807,4.75,1.678,7.251,2.739a81.39,81.39,0,0,1,12.887,6.776c.222.142.459.333.681.491-.934-.269-6.175-1.362-6.555-1.393-4.75-.443-14.249,1.583-16.37,6.444a6.333,6.333,0,0,0,4.227,8.47c3.626,1.124,7.916-.712,10.829-2.8,3.356-2.406,7.916-10.307,8.027-10.608a114.832,114.832,0,0,1,11.431,8.961c2.676,2.375,5.3,4.908,7.916,7.457-1.235-.317-6.111-1.346-6.475-1.377-4.75-.443-14.249,1.583-16.37,6.46a6.333,6.333,0,0,0,4.227,8.454c3.626,1.124,7.916-.712,10.829-2.8,3.277-2.343,7.631-9.9,8-10.528,1.187,1.156,2.375,2.312,3.546,3.483,3.847,3.831,7.679,7.679,11.589,11.352,1.346,1.282,2.723,2.486,4.1,3.7-1.852-.427-5.24-1.124-5.541-1.156-4.75-.443-14.249,1.583-16.37,6.46a6.333,6.333,0,0,0,4.227,8.454c3.61,1.14,7.916-.712,10.813-2.786s6.729-8.375,7.774-10.148c2.312,1.995,4.639,3.942,7.029,5.747,1.045.744,2.058,1.583,3.166,2.248l3.087,2.058c2.153,1.346,4.148,2.581,6.19,3.768,1.013.617,1.995,1.172,3.008,1.742-1.821-.712-4.75-1.773-4.987-1.852-4.655-1.156-14.328-.665-17.162,3.895a6.333,6.333,0,0,0,2.9,9.008c3.4,1.662,7.916.491,11.083-1.124,3.531-1.789,8.834-8.344,9.5-9.151,2.47,1.409,4.876,2.739,7.156,3.958,6.08,3.261,11.4,5.858,15.516,7.789,13.394,11.589,32.234,12.856,32.234,12.856s1-22.577-12.286-37.427A46.879,46.879,0,0,0,230.8,198.382ZM206.895,220.4c.412-.934,3.626-8.106,3.847-12.143l2.216-.459a52.246,52.246,0,0,0,8.312,19.869q-3.657-1.726-7.916-3.863c-2.042-1.061-4.227-2.2-6.46-3.4Z" transform="translate(-74.299 -75.568)" fill="#ca4548" opacity="0.61"/>
    <path id="Path_7334" data-name="Path 7334" d="M253.971,150.42s-22.593.681-36.414,15.056-13.647,36.952-13.647,36.952,22.577-.7,36.414-15.056S253.971,150.42,253.971,150.42Z" transform="translate(1.292 -31.912)" fill="#f92524"/>
    <g id="Group_6754" data-name="Group 6754" transform="translate(205.202 118.508)">
      <path id="Path_7339" data-name="Path 7339" d="M253.971,150.42s-22.593.681-36.414,15.056-13.647,36.952-13.647,36.952,22.577-.7,36.414-15.056S253.971,150.42,253.971,150.42Z" transform="translate(-203.91 -150.42)" fill="#a83336"/>
    </g>
    <path id="Path_7340" data-name="Path 7340" d="M207.059,193.938,229.24,173.99l-.95-1.061-21.247,19.094-.111-26.123.111.079,18.777-27.437-1.187-.807-17.7,25.9-.285-62.885h-1.409l.174,42.684L191.29,131.211l-.934,1.077,15.072,13.046.127,30.509L184.15,156.907l-.95,1.061,22.355,19.79.127,27.785L189.6,192.925l-.871,1.108L205.7,207.364l.063,17.875h1.425l-.127-31.316Z" transform="translate(-10.787 -60.881)" fill="#fff"/>
    <path id="Path_7341" data-name="Path 7341" d="M199.766,173.061l-1.409-.158-1.789,15.785-9.531-10.639h.032l-2.422-19.125-1.409.19,2.153,17.1L161.721,149.74l-1.061.95,16.07,17.954-10.18.127.032,1.425,11.4-.142,11.273,12.587-15.911.016v1.425l17.178-.016,10.243,11.447-11.225.681.1,1.409,12.333-.744,6.824,7.631,1.061-.95-12.017-13.426Z" transform="translate(-23.932 -32.309)" fill="#fff"/>
    <path id="Path_7342" data-name="Path 7342" d="M228.342,178.481l18.872-3.847-.285-1.393-16.877,3.436,24.619-25.585-1.029-.982-16.7,17.352-.887-10.133-1.409.127.982,11.368L223.909,181l-1.2-15.864-1.425.111,1.314,17.13-10.655,11.051-1.5-11.13-1.425.19,1.662,12.254-7.093,7.378,1.029.982L217.1,190.118l17.162.649.048-1.409-15.88-.617,9.9-10.291Z" transform="translate(1.099 -32.093)" fill="#fff"/>
  </g>
  <g id="freepik--Characters--inject-2" transform="translate(41.289 60.832)">
    <ellipse id="Ellipse_140" data-name="Ellipse 140" cx="13.41" cy="13.552" rx="13.41" ry="13.552" transform="translate(192.64 3.388)" fill="#263238" stroke="#263238" stroke-linecap="round" stroke-linejoin="round" stroke-width="1"/>
    <path id="Path_7343" data-name="Path 7343" d="M251.38,148.11s6.333-.269,7.916,10.956,8.2,40.5,8.755,44.6-1.916,9.04-7.916,10.956-9.309-3.831-9.863-6.57-5.842-36.082-5.842-36.082Z" transform="translate(-8.109 -94.091)" fill="#263238" stroke="#263238" stroke-linecap="round" stroke-linejoin="round" stroke-width="1"/>
    <path id="Path_7344" data-name="Path 7344" d="M220.108,168.511S192.37,180.243,192.37,184.5s17.083,45.913,17.083,45.913l73.6-19.2-8.249-46.1S263.852,151.444,220.108,168.511Z" transform="translate(-38.471 -87.197)" fill="#a83336" stroke="#263238" stroke-linecap="round" stroke-linejoin="round" stroke-width="1"/>
    <path id="Path_7345" data-name="Path 7345" d="M236.951,150.287s-7.916,4.924-14.249,8.47-15.832,8.486-15.832,18.35,7.124,48.985,7.124,53.085a22.845,22.845,0,0,0,.269,5.478c0-.823,48.161-16.7,48.161-16.7a175.611,175.611,0,0,1,5.478-18.6c2.47-6.016,0-11.225,2.739-21.073s7.916-16.418,5.747-23.748-2.739-7.109-10.671-7.394S244.614,147.817,236.951,150.287Z" transform="translate(-30.014 -94.146)" fill="#263238" stroke="#263238" stroke-linecap="round" stroke-linejoin="round" stroke-width="1"/>
    <path id="Path_7346" data-name="Path 7346" d="M225.911,147.313s-3.562,1.916-4.94,10.671a168.96,168.96,0,0,0-1.362,21.073s14.771-8.2,16.972-8.486,18.065,6.333,18.065,6.333a146.7,146.7,0,0,0-5.478-21.358C245.891,146.759,229.188,143.481,225.911,147.313Z" transform="translate(-22.584 -95.479)" fill="#fff" stroke="#263238" stroke-linecap="round" stroke-linejoin="round" stroke-width="1"/>
    <path id="Path_7347" data-name="Path 7347" d="M221.86,145.35l.269.934c1.061,3.7,5.035,17.415,7.394,24.239,2.739,7.916,6.84,11.225,6.84,11.225l4.1-16.37S224.314,149.72,221.86,145.35Z" transform="translate(-21.272 -95.701)" fill="#fff" stroke="#263238" stroke-linecap="round" stroke-linejoin="round" stroke-width="1"/>
    <path id="Path_7348" data-name="Path 7348" d="M237.98,123.252s-13.41-2.185-18.065,15.326,10.4,32.567,14.771,38.314,10.7,7.584,14.249,1.916c5.478-8.755,7.125-13.141,7.916-24.635S256.3,135.015,251.1,129a18.033,18.033,0,0,0-13.125-5.747Z" transform="translate(-22.921 -108.64)" fill="#fff" stroke="#263238" stroke-linecap="round" stroke-linejoin="round" stroke-width="1"/>
    <path id="Path_7349" data-name="Path 7349" d="M251.136,129A18.033,18.033,0,0,0,238,123.252s-13.41-2.185-18.064,15.326a27.754,27.754,0,0,0,.364,15.088c.491-1.251,1.235-2.232,2.375-2.232,3.277,0,3.562,4.655,4.655,4.386s5.462-4.1,4.655-7.663.269-5.193,6.016-5.193,7.109,2.454,9.024,1.916,3.293-4.386,5.209-4.386a6.444,6.444,0,0,1,4.528,2.09A24.239,24.239,0,0,0,251.136,129Z" transform="translate(-22.905 -108.64)" fill="#263238" stroke="#263238" stroke-linecap="round" stroke-linejoin="round" stroke-width="1"/>
    <path id="Path_7350" data-name="Path 7350" d="M227.1,147.09s-2.2-5.478-4.655-6.032-3.831,1.108-2.47,5.747,3.293,6.57,4.386,6.57,1.583-1.583,1.583-1.583" transform="translate(-22.683 -98.264)" fill="#fff" stroke="#263238" stroke-linecap="round" stroke-linejoin="round" stroke-width="1"/>
    <path id="Path_7351" data-name="Path 7351" d="M211.66,180.26s1.362,8.771,7.394,12.666,14.249,1.916,14.249,1.916" transform="translate(-27.221 -75.341)" fill="none" stroke="#263238" stroke-linecap="round" stroke-linejoin="round" stroke-width="1"/>
    <path id="Path_7352" data-name="Path 7352" d="M231,168.34s3.831,14.5,3.008,20.788" transform="translate(-15.941 -82.293)" fill="none" stroke="#263238" stroke-linecap="round" stroke-linejoin="round" stroke-width="1"/>
    <path id="Path_7353" data-name="Path 7353" d="M182.458,166.063s3.325,1.377,5.826,9.974,9.135,24.382,10.8,30.477,1.108,13.853-6.1,15.832-14.961-17.732-16.07-19.394-3.879-17.178-2.486-25.49S179.418,164.971,182.458,166.063Z" transform="translate(-49.157 -83.72)" fill="#fff" stroke="#263238" stroke-linecap="round" stroke-linejoin="round" stroke-width="1"/>
    <path id="Path_7354" data-name="Path 7354" d="M170.385,184.18S127.1,226.4,127.1,232.737s25.474,58.706,32.6,57.518S198.883,254.9,198.883,254.9Z" transform="translate(-76.538 -73.054)" fill="#a83336" stroke="#263238" stroke-linecap="round" stroke-linejoin="round" stroke-width="1"/>
    <path id="Path_7355" data-name="Path 7355" d="M166.688,172.667a269.539,269.539,0,0,0-23.273,23.273c-9.705,11.352-8.866,30.477-5.826,43.491s8.6,49.871,15.516,51.265,12.476-13.3,24.667-23.748,21.9-19.394,22.719-26.329-.269-29.084.285-30.746a175.736,175.736,0,0,0,2.217-24.667c0-8.027-6.1-16.893-12.191-18.84S169.173,170.751,166.688,172.667Z" transform="translate(-71.621 -83.659)" fill="#fff" stroke="#263238" stroke-linecap="round" stroke-linejoin="round" stroke-width="1"/>
    <path id="Path_7356" data-name="Path 7356" d="M219.889,336.585s-8.961,18.429-21.785,30.16-32.947,26.25-32.947,26.25,21.215,6.713,25.7,7.267,3.341,2.786-1.678,5.035-11.177,3.91-25.142,3.91-22.893,0-23.463-3.356,8.391-11.732,15.088-18.429,32.393-48.6,34.625-50.837S208.157,327.085,219.889,336.585Z" transform="translate(-68.697 13.053)" fill="#fff" stroke="#263238" stroke-linecap="round" stroke-linejoin="round" stroke-width="1"/>
    <path id="Path_7357" data-name="Path 7357" d="M190.857,377.517c-3.689-.459-18.714-5.082-23.907-6.7l-4.021,8.929a19.822,19.822,0,0,1-16.909-5.288c-3.341,3.626-5.747,6.855-5.462,8.644.57,3.356,9.5,3.356,23.463,3.356s20.107-1.678,25.142-3.911S195.322,378.071,190.857,377.517Z" transform="translate(-68.702 35.798)" fill="#263238" stroke="#263238" stroke-linecap="round" stroke-linejoin="round" stroke-width="1"/>
    <path id="Path_7358" data-name="Path 7358" d="M291.88,336.585s8.945,18.429,21.785,30.16,32.963,26.25,32.963,26.25-21.231,6.713-25.7,7.267-3.356,2.787,1.678,5.035,11.082,3.911,25.126,3.911,22.909,0,23.463-3.356-8.375-11.732-15.088-18.429-32.393-48.6-34.625-50.837S303.612,327.085,291.88,336.585Z" transform="translate(19.565 13.053)" fill="#fff" stroke="#263238" stroke-linecap="round" stroke-linejoin="round" stroke-width="1"/>
    <path id="Path_7359" data-name="Path 7359" d="M311.259,377.517c3.673-.459,18.714-5.082,23.907-6.7l4.021,8.929a19.838,19.838,0,0,0,16.893-5.288c3.325,3.626,5.747,6.855,5.446,8.644-.554,3.356-9.5,3.356-23.463,3.356s-20.107-1.678-25.126-3.911S306.795,378.071,311.259,377.517Z" transform="translate(29.238 35.798)" fill="#263238" stroke="#263238" stroke-linecap="round" stroke-linejoin="round" stroke-width="1"/>
    <path id="Path_7360" data-name="Path 7360" d="M111.611,342.243s7.821,14.518,7.267,19.553c-.459,4.1-10.228,35.417-13.79,46.752a2.85,2.85,0,0,0,2.976,3.689h0a2.85,2.85,0,0,0,2.454-1.963l15.626-47.924s2.786-3.356,11.732-5.019c6.84-1.3,40.91-2.9,56.458-3.578A11.083,11.083,0,0,1,206,363.806v.222c.491,6.444,11.083,39.77,13.489,47.148a1.773,1.773,0,0,0,1.979,1.2h0a1.773,1.773,0,0,0,1.441-2.121c-1.9-8.644-10.053-45.913-13-64.659,0,0-59.212,2.787-72.622-.57a83.754,83.754,0,0,1-22.893-9.5S111.057,335.546,111.611,342.243Z" transform="translate(-89.451 15.216)" fill="#263238" stroke="#263238" stroke-linecap="round" stroke-linejoin="round" stroke-width="1"/>
    <path id="Path_7361" data-name="Path 7361" d="M112.32,279.059S92.2,342.166,95.538,353.344s19.553,26.8,25.7,26.8,11.178-61.429,11.178-67.018-10.592-25.648-13.964-34.071S112.32,279.059,112.32,279.059Z" transform="translate(-95.164 -19.902)" fill="#a83336" stroke="#263238" stroke-linecap="round" stroke-linejoin="round" stroke-width="1"/>
    <path id="Path_7362" data-name="Path 7362" d="M211.827,360.734c-.206,6.333-1.187,11.178-3.831,11.178-5.019,0-59.767,5.573-72.606,5.019s-22.339-7.172-22.339-16.671.554-51.391,10.053-57,59.766-6.143,71.5-6.143c14.439,0,15.056,27.9,15.674,37.348C210.45,337.191,212.144,350.759,211.827,360.734Z" transform="translate(-84.732 -7.186)" fill="#a83336" stroke="#263238" stroke-linecap="round" stroke-linejoin="round" stroke-width="1"/>
    <path id="Path_7363" data-name="Path 7363" d="M168.583,346.924s35.749,1.124,38.536-4.465,0-17.32-7.251-19.553-37.427-.554-37.427-.554Z" transform="translate(-55.927 7.178)" fill="#fff" stroke="#263238" stroke-linecap="round" stroke-linejoin="round" stroke-width="1"/>
    <path id="Path_7364" data-name="Path 7364" d="M112.674,311.637a74.111,74.111,0,0,0-2.786,22.973c.554,12.3,3.911,24.587,20.582,34.641s71.5-1.678,71.5-1.678L198.057,294.4s-36.3-4.465-56.41-.554S113.26,309.4,112.674,311.637Z" transform="translate(-86.604 -10.034)" fill="#263238" stroke="#263238" stroke-linecap="round" stroke-linejoin="round" stroke-width="1"/>
    <path id="Path_7365" data-name="Path 7365" d="M285.051,141.872a44.693,44.693,0,0,0-9.278,14.661c-2.992,8.391-12.872,33.533-12.571,38.314s4.481,10.782,8.676,7.489,14.36-20.946,14.961-21.848,1.2-13.473,1.2-21.263S288.566,141.572,285.051,141.872Z" transform="translate(2.836 -97.733)" fill="#fff" stroke="#263238" stroke-linecap="round" stroke-linejoin="round" stroke-width="1"/>
    <path id="Path_7366" data-name="Path 7366" d="M286.984,158.857c3.277-.633,78.116,15.832,78.116,24.271s-16.893,54.89-16.893,54.89l-71.767-19S277.881,160.677,286.984,158.857Z" transform="translate(10.56 -87.834)" fill="#a83336" stroke="#263238" stroke-linecap="round" stroke-linejoin="round" stroke-width="1"/>
    <path id="Path_7367" data-name="Path 7367" d="M313.26,136s-16.165-1.8-27.548,3.895-11.367,15.262-10.766,24.54,3.689,59.323,4.591,62.917,21.453,2.644,33.422,5.035S333.319,224.9,335.124,221s22.751-41.908,22.751-49.982-8.676-23.352-20.962-30.54A34.72,34.72,0,0,0,313.26,136Z" transform="translate(9.569 -101.436)" fill="#fff" stroke="#263238" stroke-linecap="round" stroke-linejoin="round" stroke-width="1"/>
    <path id="Path_7368" data-name="Path 7368" d="M295.409,157.938l3.293,7.188-12.872,44.9,2.992,8.676,8.692-6.586,4.781-46.087,6.586-7.188-3.293-8.09Z" transform="translate(16.037 -92.551)" fill="#263238" stroke="#263238" stroke-linecap="round" stroke-linejoin="round" stroke-width="1"/>
    <path id="Path_7369" data-name="Path 7369" d="M294.544,145.524a72.822,72.822,0,0,0-4.5,10.481,58.417,58.417,0,0,0-1.187,11.969s9.578-4.5,12.27-4.5,8.074,12.286,8.074,12.286,8.09-11.985,9.293-20.582-8.09-14.961-14.676-14.961a10.592,10.592,0,0,0-9.278,5.3Z" transform="translate(17.804 -98.693)" fill="#fff" stroke="#263238" stroke-linecap="round" stroke-linejoin="round" stroke-width="1"/>
    <path id="Path_7370" data-name="Path 7370" d="M315.872,138.86s3.008-4.5,3.594-.3-2.992,7.473-5.082,8.676a3.167,3.167,0,0,1-3.594,0" transform="translate(30.594 -100.705)" fill="#fff" stroke="#263238" stroke-linecap="round" stroke-linejoin="round" stroke-width="1"/>
    <path id="Path_7371" data-name="Path 7371" d="M296.675,127.34s-2.992-2.391-4.75,2.391,1.2,10.782,1.2,10.782l2.992-6.333" transform="translate(19.266 -106.553)" fill="#fff" stroke="#263238" stroke-linecap="round" stroke-linejoin="round" stroke-width="1"/>
    <path id="Path_7372" data-name="Path 7372" d="M294.766,154.77a3.024,3.024,0,0,0,2.992,3.879c3.895.3,11.969-8.074,12.571-9.879S294.766,154.77,294.766,154.77Z" transform="translate(21.176 -93.864)" fill="#fff" stroke="#263238" stroke-linecap="round" stroke-linejoin="round" stroke-width="1"/>
    <path id="Path_7373" data-name="Path 7373" d="M310.684,116.519s-10.481,4.75-12.872,12.27-6.333,22.751-6.333,28.5,1.789,17.415,5.684,19.157,16.766-6.586,20.344-8.977S325.3,155.8,329.794,150.4s8.074-15.262,6.333-23.337S321.15,109.331,310.684,116.519Z" transform="translate(19.332 -113.986)" fill="#fff" stroke="#263238" stroke-linecap="round" stroke-linejoin="round" stroke-width="1"/>
    <path id="Path_7374" data-name="Path 7374" d="M335.211,127c-1.8-8.09-14.977-17.669-25.442-10.481,0,0-10.481,4.75-12.872,12.27-1.14,3.562-2.612,8.866-3.847,14.075,2.042-3.166,5.43-8.629,5.636-9.879.3-1.8.3-2.106,2.391-2.106s5.985,5.985,11.383,7.188,12.571.3,12.571,3.293-4.2,7.789-1.5,9.278c2.106,1.172.222,5.209.412,6.966a63.332,63.332,0,0,1,4.987-7.267C333.406,144.958,337,135.078,335.211,127Z" transform="translate(20.247 -113.99)" fill="#263238" stroke="#263238" stroke-linecap="round" stroke-linejoin="round" stroke-width="1"/>
    <path id="Path_7375" data-name="Path 7375" d="M297.562,134.247s10.481,5.082,15.563,6.887,10.18,3.879,8.375,7.172-7.774,4.75-11.368,3.293-2.691-8.977-4.75-9.278-3.578,3.594-7.473,3.594-8.09-5.985-7.489-10.18S297.562,134.247,297.562,134.247Z" transform="translate(18.681 -102.678)" fill="#fff" stroke="#263238" stroke-linecap="round" stroke-linejoin="round" stroke-width="1"/>
    <line id="Line_78" data-name="Line 78" y1="6.887" x2="6.887" transform="translate(341.083 35.749)" fill="#fff" stroke="#263238" stroke-linecap="round" stroke-linejoin="round" stroke-width="1"/>
    <line id="Line_79" data-name="Line 79" y1="8.09" x2="3.578" transform="translate(310.859 23.178)" fill="#fff" stroke="#263238" stroke-linecap="round" stroke-linejoin="round" stroke-width="1"/>
    <path id="Path_7376" data-name="Path 7376" d="M355,173.84s-19.854,17.669-25,22.782-5.383,14.946-.491,17.146,20.344-6.855,22.783-8.819S361.362,175.059,355,173.84Z" transform="translate(39.455 -79.085)" fill="#263238" stroke="#263238" stroke-linecap="round" stroke-linejoin="round" stroke-width="1"/>
    <path id="Path_7377" data-name="Path 7377" d="M392.165,201.74s26.677,26.661,21.342,35.195-56.537,35.211-56.537,35.211l-9.61-41.607Z" transform="translate(51.922 -62.813)" fill="#a83336" stroke="#263238" stroke-linecap="round" stroke-linejoin="round" stroke-width="1"/>
    <path id="Path_7378" data-name="Path 7378" d="M363.378,172.959s-11.257-.982-15.421,1.71-7.109,27.691-7.916,42.636-2.692,26.915-1.71,29.875,26.456,35.037,30.081,39.454,33.327-40.673,37.491-49.745,1.472-17.415-3.926-29.875S385.084,183,378.229,176.632a15.832,15.832,0,0,0-14.851-3.673Z" transform="translate(46.495 -79.914)" fill="#263238" stroke="#263238" stroke-linecap="round" stroke-linejoin="round" stroke-width="1"/>
    <path id="Path_7379" data-name="Path 7379" d="M354.689,197.609l-.174.95c-.317,1.757-1,5.779-1.583,10.323-.744,6.127-.491,14.249,1.472,14.249s27.675-18.619,28.165-35.512S356.653,190.516,354.689,197.609Z" transform="translate(54.947 -74.926)" fill="#fff" stroke="#263238" stroke-linecap="round" stroke-linejoin="round" stroke-width="1"/>
    <path id="Path_7380" data-name="Path 7380" d="M355.04,171.371s-2.454,9.056-2.454,10.528a31.806,31.806,0,0,0,.982,5.146s-4.164,6.618-3.673,7.346a13.748,13.748,0,0,0,1.947,1.963s-.475,9.309,1.472,11.273,10.053.728,10.053.728-3.926,4.908.491,5.145,16.165-9.5,19.6-15.183,3.166-15.927,0-21.073S361.4,164.99,355.04,171.371Z" transform="translate(53.377 -81.998)" fill="#fff" stroke="#263238" stroke-linecap="round" stroke-linejoin="round" stroke-width="1"/>
    <path id="Path_7381" data-name="Path 7381" d="M375.109,159.426s-18.872,2.454-22.292,9.8,4.4,16.418,10.038,17.653a36.7,36.7,0,0,0,9.309.966s-5.874,5.145-2.2,6.333,5.383.491,5.383,1.71-3.673,5.145-.491,5.4,4.164-5.4,6.127-4.164-.728,6.111.253,6.333,10.291-9.5,14.249-19.854-1.472-16.655-5.383-20.075S379.764,158.207,375.109,159.426Z" transform="translate(54.618 -87.707)" fill="#263238" stroke="#263238" stroke-linecap="round" stroke-linejoin="round" stroke-width="1"/>
    <path id="Path_7382" data-name="Path 7382" d="M367.494,188.72s3.436-7.916,5.636-6.111,1.472,7.346-.982,9.309-7.109-.253-7.109-.253" transform="translate(62.233 -74.127)" fill="#fff" stroke="#263238" stroke-linecap="round" stroke-linejoin="round" stroke-width="1"/>
    <path id="Path_7383" data-name="Path 7383" d="M352.82,201.431l7.837-3.911-1.219,11.747" transform="translate(55.106 -65.274)" fill="#fff" stroke="#263238" stroke-linecap="round" stroke-linejoin="round" stroke-width="1"/>
    <path id="Path_7384" data-name="Path 7384" d="M435.524,333.893s-14.091,27.738-13.536,32.773c.459,4.1,10.228,35.417,13.806,46.752a2.866,2.866,0,0,1-2.992,3.689h0a2.85,2.85,0,0,1-2.454-1.963L414.737,367.22s-2.8-3.356-11.732-5.019c-6.855-1.3-40.91-2.9-56.473-3.578a11.083,11.083,0,0,0-11.653,10.053,1.039,1.039,0,0,0,0,.222c-.507,6.444-11.082,39.77-13.5,47.148a1.773,1.773,0,0,1-1.979,1.2h0a1.773,1.773,0,0,1-1.441-2.122c1.9-8.644,10.053-45.913,13.014-64.659,0,0,59.2,2.786,72.606-.57s29.179-22.719,29.179-22.719S436.078,327.18,435.524,333.893Z" transform="translate(34.749 10.346)" fill="#263238" stroke="#263238" stroke-linecap="round" stroke-linejoin="round" stroke-width="1"/>
    <path id="Path_7385" data-name="Path 7385" d="M406.52,274.814s15.421,64.421,11.257,75.314-21.453,25.332-27.58,24.857-6.649-62.094-6.238-67.667,12.476-24.841,16.434-33.026S406.52,274.814,406.52,274.814Z" transform="translate(73.205 -22.545)" fill="#a83336" stroke="#263238" stroke-linecap="round" stroke-linejoin="round" stroke-width="1"/>
    <path id="Path_7386" data-name="Path 7386" d="M322.019,360.734c.19,6.333,1.187,11.178,3.816,11.178,5.035,0,59.767,5.573,72.622,5.019s22.292-7.172,22.292-16.671-.57-51.471-10.069-57-59.767-6.143-71.5-6.143c-14.439,0-15.072,27.9-15.674,37.348C323.333,337.191,321.655,350.759,322.019,360.734Z" transform="translate(37.113 -7.186)" fill="#a83336" stroke="#263238" stroke-linecap="round" stroke-linejoin="round" stroke-width="1"/>
    <path id="Path_7387" data-name="Path 7387" d="M418.262,311.469s-4.623,11.288-4.623,20.249-4.338,26.6-13.3,31.791-19,8.106-33.833,6.079-47.117-7.235-47.117-7.235,33.248-23.748,41.623-35.559,11.273-21.674,17.922-28.324S417.676,285.172,418.262,311.469Z" transform="translate(35.609 -9.882)" fill="#263238" stroke="#263238" stroke-linecap="round" stroke-linejoin="round" stroke-width="1"/>
    <ellipse id="Ellipse_141" data-name="Ellipse 141" cx="177.716" cy="137.344" rx="177.716" ry="137.344" transform="translate(77.224 116.667)" fill="#263238" stroke="#263238" stroke-linecap="round" stroke-linejoin="round" stroke-width="1"/>
    <path id="Path_7500" data-name="Path 7500" d="M177.716,0c98.15,0,177.716,61.491,177.716,137.344S275.866,274.689,177.716,274.689,0,213.2,0,137.344,79.566,0,177.716,0Z" transform="translate(77.224 112.55)" fill="#ca4548" stroke="#263238" stroke-linecap="round" stroke-width="1"/>
    <path id="Path_7388" data-name="Path 7388" d="M326.7,218.56l22.545,24.746L309.3,271.962l-23.02-27.928Z" transform="translate(16.299 -53.003)" fill="#fff" stroke="#263238" stroke-linecap="round" stroke-linejoin="round" stroke-width="1"/>
    <path id="Path_7389" data-name="Path 7389" d="M248.379,219.91,211.49,238.877l32.678,40.04L282.1,253.633Z" transform="translate(-27.32 -52.216)" fill="#fff" stroke="#263238" stroke-linecap="round" stroke-linejoin="round" stroke-width="1"/>
    <path id="Path_7390" data-name="Path 7390" d="M283.7,245.24,246.83,264.207l32.662,40.04,37.934-25.284Z" transform="translate(-6.709 -37.443)" fill="#fff" stroke="#263238" stroke-linecap="round" stroke-linejoin="round" stroke-width="1"/>
    <path id="Path_7391" data-name="Path 7391" d="M282.153,247.08,242.43,258.954l24.762,45.359,41.924-17.906Z" transform="translate(-9.275 -36.37)" fill="#fff" stroke="#263238" stroke-linecap="round" stroke-linejoin="round" stroke-width="1"/>
    <path id="Path_7392" data-name="Path 7392" d="M240.386,206.254s7.172-2.676,7.172-.887,0,3.578-3.166,4.48-13.885-1.346-11.193-2.691A16.07,16.07,0,0,1,240.386,206.254Z" transform="translate(-14.91 -61.057)" fill="#fff" stroke="#263238" stroke-linecap="round" stroke-linejoin="round" stroke-width="1"/>
    <path id="Path_7393" data-name="Path 7393" d="M222.082,157.1s-9.293,3.277-13.948,9.04-6.84,20.788-7.916,27.358-6.016,31.474-3.277,34.483,32.013,13.141,37.76,14.787,12.666,4.1,16.434,3.831a17.938,17.938,0,0,0,7.663-3.008s6.57,3.008,8.2,3.008,3.831-3.008,1.916-6.032-7.251-7.409-10.259-7.409-14.091,1.662-14.091,1.662-18.888-9.578-24.366-13.41a69.83,69.83,0,0,1-9.578-8.2l11.225-35.037" transform="translate(-36.281 -88.848)" fill="#263238" stroke="#263238" stroke-linecap="round" stroke-linejoin="round" stroke-width="1"/>
    <path id="Path_7394" data-name="Path 7394" d="M244.739,205.484c-3.008,0-14.091,1.662-14.091,1.662s-2.09-1.045-5.066-2.6a13.536,13.536,0,0,0-5.066,6.428,16.134,16.134,0,0,0-.586,3.863l.855.253c5.747,1.583,12.666,4.1,16.434,3.831a17.937,17.937,0,0,0,7.663-3.008s6.57,3.008,8.2,3.008,3.831-3.008,1.916-6.032S247.747,205.484,244.739,205.484Z" transform="translate(-22.397 -61.174)" fill="#fff" stroke="#263238" stroke-linecap="round" stroke-linejoin="round" stroke-width="1"/>
    <path id="Path_7395" data-name="Path 7395" d="M159.3,174.338c-.839.253-7.2,7.2-7.758,15.246s5.541,21.326,6.65,23.542-.269,6.1,2.5,6.1,11.368-12.745,11.368-12.745,9.689.554,10.8-1.932-7.758-16.355-9.689-22.165S164.019,172.961,159.3,174.338Z" transform="translate(-62.303 -78.965)" fill="#fff" stroke="#263238" stroke-linecap="round" stroke-linejoin="round" stroke-width="1"/>
    <path id="Path_7396" data-name="Path 7396" d="M156.748,172.429a55.811,55.811,0,0,1-1.108,11.352c-1.108,3.879-1.377,5.826,2.771,11.922a149.44,149.44,0,0,0,13.584,15.516s.554-6.333.839-9.974,5.81-5.826,6.919-7.489-6.1-2.771-8.866-7.758-2.771-13.568-6.649-14.407S158.2,168.55,156.748,172.429Z" transform="translate(-60.304 -81.204)" fill="#fff" stroke="#263238" stroke-linecap="round" stroke-linejoin="round" stroke-width="1"/>
    <path id="Path_7397" data-name="Path 7397" d="M197.258,169.17s7.758-2.216,6.333-9.974S188.076,145.627,172.845,147s-22.165,11.367-23.558,21.342,9.135,19.664,10.243,21.326-.269,3.325,3.056,4.433a12.793,12.793,0,0,0,6.919,0,7.425,7.425,0,0,0,7.489,3.056c4.75-1.108,3.325-10.528,5.272-11.637s3.325-4.75,9.135-8.043S197.258,169.17,197.258,169.17Z" transform="translate(-63.672 -94.854)" fill="#263238" stroke="#263238" stroke-linecap="round" stroke-linejoin="round" stroke-width="1"/>
    <path id="Path_7398" data-name="Path 7398" d="M167.99,183.911s.554-4.433-4.987-4.987-4.148,4.75-3.04,7.2,4.971,4.433,4.971,4.433,1.393,6.333,3.341,6.919,13.568,5.541,15.832,4.75,4.433-11.083,4.433-11.083,3.879-1.947,3.879-3.879-1.726-7.52-1.726-8.834,3.056-5.272,3.61-8.312-2.771-9.151-2.771-9.151-1.393,4.987-5.826,4.987a34.307,34.307,0,0,1-8.866-1.377s2.217,5.81.554,8.312-4.433,1.932-4.987,3.04-.269,6.1-.554,7.2S169.653,188.059,167.99,183.911Z" transform="translate(-57.962 -86.591)" fill="#fff" stroke="#263238" stroke-linecap="round" stroke-linejoin="round" stroke-width="1"/>
    <path id="Path_7399" data-name="Path 7399" d="M181.64,198.3s1.377,11.083,4.148,15.516S200.2,235.43,200.2,235.43s-.823,5.826,0,7.489a76.39,76.39,0,0,1,4.164,10.8c0,1.108,2.217,1.947,2.486.285a27.836,27.836,0,0,0,.285-3.879l4.75,7.2s2.5,1.932,3.325.269.285-10.528.839-14.122-2.216-8.6-4.433-10.813-4.987-6.1-5.826-6.919-4.433-13.853-6.1-22.719-6.1-14.407-9.42-14.961" transform="translate(-44.729 -70.792)" fill="#fff" stroke="#263238" stroke-linecap="round" stroke-linejoin="round" stroke-width="1"/>
    <path id="Path_7400" data-name="Path 7400" d="M208.986,243.151c.839-1.583.285-10.528.839-14.122s-2.217-8.6-4.433-10.813a65.581,65.581,0,0,1-4.512-5.335,18.1,18.1,0,0,0-8.66,5.446l1.8,2.66s-.823,5.826,0,7.489a76.387,76.387,0,0,1,4.164,10.8c0,1.108,2.216,1.947,2.486.285a27.834,27.834,0,0,0,.285-3.879l4.75,7.2S208.163,244.734,208.986,243.151Z" transform="translate(-38.559 -56.316)" fill="#fff" stroke="#263238" stroke-linecap="round" stroke-linejoin="round" stroke-width="1"/>
    <path id="Path_7401" data-name="Path 7401" d="M142.417,187.53a20.423,20.423,0,0,0-7.2,11.367c-1.932,7.758,4.433,39.343,6.1,48.478s9.974,39.58,12.476,41.559,31.585-1.662,42.114-3.594,33.248-9.974,38-11.367,7.2-8.581,8.581-9.974,4.433-6.1,2.771-7.758-6.333,0-8.312,0-5.541-.269-9.42-.269a8.819,8.819,0,0,0-8.312,6.649,16.4,16.4,0,0,1-2.771,5.81s-28.5,3.879-34.625,3.879a96.967,96.967,0,0,1-11.922-.823s-3.325-19.125-5.826-31.031-4.75-21.057-6.65-24.112" transform="translate(-72.017 -71.101)" fill="#fff" stroke="#263238" stroke-linecap="round" stroke-linejoin="round" stroke-width="1"/>
    <path id="Path_7402" data-name="Path 7402" d="M207.6,231.2c-1.932,0-5.541-.269-9.42-.269a8.819,8.819,0,0,0-8.312,6.65,16.4,16.4,0,0,1-2.771,5.81l-2.011.269a15.245,15.245,0,0,1,1.457,5.272,29.38,29.38,0,0,1-.364,5.985c8.2-2.6,15.832-5.24,18.381-5.985,4.75-1.377,7.2-8.581,8.581-9.974s4.433-6.1,2.771-7.758S209.551,231.2,207.6,231.2Z" transform="translate(-42.717 -46.061)" fill="#fff" stroke="#263238" stroke-linecap="round" stroke-linejoin="round" stroke-width="1"/>
    <path id="Path_7403" data-name="Path 7403" d="M187.47,267.2s7.14.586,9.5.586,18.745-1.773,16.37-4.449-20.265-5.066-20.265-5.066Z" transform="translate(-41.329 -29.844)" fill="#fff" stroke="#263238" stroke-linecap="round" stroke-linejoin="round" stroke-width="1"/>
    <path id="Path_7404" data-name="Path 7404" d="M229.18,253.76l-52.04,24.1,20.218,41.037,51.154-25.87Z" transform="translate(-47.353 -32.474)" fill="#fff" stroke="#263238" stroke-linecap="round" stroke-linejoin="round" stroke-width="1"/>
    <path id="Path_7405" data-name="Path 7405" d="M188,263.6s6.238,0,7.726.9,7.726,6.539,8.629,5.05-2.676-5.05-4.164-6.539-2.976-2.676-2.976-2.676" transform="translate(-41.02 -28.636)" fill="#fff" stroke="#263238" stroke-linecap="round" stroke-linejoin="round" stroke-width="1"/>
    <path id="Path_7406" data-name="Path 7406" d="M162.618,249.45l53.592,13.964L207.818,275.7l-56.41-6.7S138.03,250.574,162.618,249.45Z" transform="translate(-64.48 -34.988)" fill="#fff" stroke="#263238" stroke-linecap="round" stroke-linejoin="round" stroke-width="1"/>
    <path id="Path_7407" data-name="Path 7407" d="M147.333,252.021s-13.062,11.083-17.415,24.54-7.125,40.372-7.125,40.372S108.94,336.723,108.94,338.7s11.478,0,11.478,0l-11.083,19s0,15.832,8.708,24.144a37.158,37.158,0,0,0,30.477,9.9c9.5-1.583,26.915-22.957,28.894-24.144s-4.75-19.394-6.333-26.123,1.583-11.478,3.562-12.666S188.1,320.5,190.476,315.35s1.979-13.853,1.187-20.582-10.687-30.081-19.394-37.206S155.645,245.688,147.333,252.021Z" transform="translate(-87.129 -35.216)" fill="#fff" stroke="#263238" stroke-linecap="round" stroke-linejoin="round" stroke-width="1"/>
    <path id="Path_7408" data-name="Path 7408" d="M140.377,250.562s-5.937,8.708-5.937,15.041,5.145,16.624,9.1,21.373a81.281,81.281,0,0,0,7.52,7.916l8.708-1.979.4,6.729s1.979-3.562,7.52-1.187,9.1.792,9.1-.4a48.731,48.731,0,0,0,0-23.352c-3.166-13.853-6.729-16.228-11.874-21.373S147.9,246.208,140.377,250.562Z" transform="translate(-72.257 -35.735)" fill="#fff" stroke="#263238" stroke-linecap="round" stroke-linejoin="round" stroke-width="1"/>
    <path id="Path_7409" data-name="Path 7409" d="M141.68,251.221s-4.354,7.52-1.979,13.457,9.9,13.061,15.832,18.207,13.457,10.687,13.457,10.687a34.1,34.1,0,0,0-2.771-26.519C158.7,252.8,145.242,248.45,141.68,251.221Z" transform="translate(-69.602 -34.415)" fill="#fff" stroke="#263238" stroke-linecap="round" stroke-linejoin="round" stroke-width="1"/>
    <path id="Path_7410" data-name="Path 7410" d="M175.818,228.18a59.248,59.248,0,0,1,2.771,7.916v2.771s5.541,3.166,4.75,4.354-3.958,6.333-3.958,6.333a50.566,50.566,0,0,1-.4,13.062c-1.187,5.146.4,7.52-3.958,7.52H163.943s-1.187,16.624-3.958,16.624-15.436-5.937-17.811-9.1-3.166-6.333-2.375-8.708a186.483,186.483,0,0,0,6.333-19.394c1.583-7.125,13.457-12.666,16.228-13.853S175.818,228.18,175.818,228.18Z" transform="translate(-69.304 -47.393)" fill="#fff" stroke="#263238" stroke-linecap="round" stroke-linejoin="round" stroke-width="1"/>
    <path id="Path_7411" data-name="Path 7411" d="M143.876,246.3s-9.5-1.583-14.249-.792-10.687,7.52-10.687,14.249,5.145,10.687,13.457,11.478,13.853-6.333,13.853-10.291a46.088,46.088,0,0,0-2.375-14.645Z" transform="translate(-81.297 -37.414)" fill="#263238" stroke="#263238" stroke-linecap="round" stroke-linejoin="round" stroke-width="1"/>
    <path id="Path_7412" data-name="Path 7412" d="M162.5,261.941s15.041-16.228,19.79-26.123,3.166-20.186-4.354-20.186-15.832-2.375-30.081,2.771-20.186,21.769-19.394,30.477,13.853,26.519,20.582,27.706,6.729-10.687,6.729-10.687Z" transform="translate(-75.782 -55.03)" fill="#263238" stroke="#263238" stroke-linecap="round" stroke-linejoin="round" stroke-width="1"/>
    <path id="Path_7413" data-name="Path 7413" d="M154.82,248.635s-3.562-7.916-7.916-5.541-.4,11.083,2.375,13.062,7.125-1.187,7.125-1.187" transform="translate(-66.118 -38.954)" fill="#fff" stroke="#263238" stroke-linecap="round" stroke-linejoin="round" stroke-width="1"/>
    <path id="Path_7414" data-name="Path 7414" d="M165.5,234.93s-1.583,5.145-3.562,5.937" transform="translate(-56.218 -43.456)" fill="none" stroke="#263238" stroke-linecap="round" stroke-linejoin="round" stroke-width="1"/>
    <path id="Path_7415" data-name="Path 7415" d="M185.448,280.475s-3.04-2.027-3.436.6,2.628,5.462,2.628,5.462-3.847-4.243-4.053-1.821,2.232,5.066,2.232,5.066-3.04-1.425-3.04-.206,4.259,5.462,4.449,7.473,4.053-4.243,4.861-9.088a7.726,7.726,0,0,0-3.641-7.489Z" transform="translate(-45.814 -17.328)" fill="#fff" stroke="#263238" stroke-linecap="round" stroke-linejoin="round" stroke-width="1"/>
    <path id="Path_7416" data-name="Path 7416" d="M179.69,311.436a65.263,65.263,0,0,0,1.979-10.687c0-3.166,3.562-8.708,5.145-11.874s-5.145-8.708-1.979-10.291,5.541,1.583,8.312,5.146,3.562,11.083,1.187,16.228a53.1,53.1,0,0,1-8.708,13.062,17.571,17.571,0,0,1-3.958,3.167Z" transform="translate(-45.866 -18.24)" fill="#fff" stroke="#263238" stroke-linecap="round" stroke-linejoin="round" stroke-width="1"/>
    <path id="Path_7417" data-name="Path 7417" d="M181.58,302.659V292.638c0-5.019,2.818-12.428,2.818-12.428a2.818,2.818,0,0,1,3.087,3.562,35.068,35.068,0,0,0,.586,9.737" transform="translate(-44.764 -17.063)" fill="#fff" stroke="#263238" stroke-linecap="round" stroke-linejoin="round" stroke-width="1"/>
    <path id="Path_7418" data-name="Path 7418" d="M127.5,294.763s-5.541,7.916-2.771,16.624,42.351,61.35,47.892,61.35,45.518-51.85,47.892-55.017-7.916-11.083-7.916-11.083l-39.976,36.414s-10.687-42.747-15.041-50.663-14.645-8.708-14.645-8.708" transform="translate(-78.375 -15.024)" fill="#fff" stroke="#263238" stroke-linecap="round" stroke-linejoin="round" stroke-width="1"/>
    <path id="Path_7419" data-name="Path 7419" d="M247.59,187.454s5.462-6.016,11.209-7.124,8.755,2.739,7.124,9.578-6.84,8.486-9.863,8.217-7.916-1.583-9.294-5.193a4.829,4.829,0,0,1,.823-5.478Z" transform="translate(-7.041 -75.41)" fill="#263238" stroke="#263238" stroke-linecap="round" stroke-linejoin="round" stroke-width="1"/>
    <path id="Path_7420" data-name="Path 7420" d="M257.842,183.72s-11.763,1.583-14.5,3.562-9.04,12.587-9.04,13.948,3.831,2.739,5.747,2.739,6.855-6.57,6.855-6.57l-2.47,6.855s2.47-.285,2.739-1.377,4.1-8.486,4.1-8.486,7.124.285,9.04-3.008S263.59,185.9,257.842,183.72Z" transform="translate(-14.017 -73.323)" fill="#fff" stroke="#263238" stroke-linecap="round" stroke-linejoin="round" stroke-width="1"/>
    <path id="Path_7421" data-name="Path 7421" d="M266.261,172.31s-3.293,11.083-3.293,17.954,4.734,29.052,4.734,29.052a21.547,21.547,0,0,1-4.75,10.18c-3.895,4.2-2.692,9.879-.9,11.668s5.4,5.1,6.586,2.992.3-5.985,1.5-7.473,5.684-3.895,6.333-8.391-.3-18.255-.3-25.743,3.895-18.555-.3-26.329" transform="translate(1.187 -79.977)" fill="#fff" stroke="#263238" stroke-linecap="round" stroke-linejoin="round" stroke-width="1"/>
    <path id="Path_7422" data-name="Path 7422" d="M276.465,199.865c-4.86-.966-7.536.681-8.961,2.454.143.681.237,1.077.237,1.077a21.547,21.547,0,0,1-4.75,10.18c-3.895,4.2-2.691,9.879-.9,11.668s5.4,5.1,6.586,2.992.3-5.985,1.5-7.473,5.684-3.895,6.333-8.391A104.257,104.257,0,0,0,276.465,199.865Z" transform="translate(1.21 -64.073)" fill="#fff" stroke="#263238" stroke-linecap="round" stroke-linejoin="round" stroke-width="1"/>
    <path id="Path_7423" data-name="Path 7423" d="M286.4,199.53,257.66,232.16,286.7,252.821,314.529,217.5Z" transform="translate(-0.393 -64.102)" fill="#fff" stroke="#263238" stroke-linecap="round" stroke-linejoin="round" stroke-width="1"/>
    <path id="Path_7424" data-name="Path 7424" d="M267.87,209.983s.3,10.18.3,11.684,3.293,3.293,3.594-.3a39.59,39.59,0,0,1,.6-5.985c.3-.9,2.09-6.586-.3-10.782" transform="translate(5.562 -61.145)" fill="#fff" stroke="#263238" stroke-linecap="round" stroke-linejoin="round" stroke-width="1"/>
    <path id="Path_7425" data-name="Path 7425" d="M341.161,159.6s-8.074,8.977-11.969,17.415-6.887,29.923-6.887,29.923-15.563,25.442-17.669,27.548-.887,1.789-5.984,4.18-11.668,3.594-12.571,5.1-4.2,8.676-5.082,9.578,1.187,2.691,2.391,1.488,5.383-5.985,5.383-5.985l-5.082,11.969a1.583,1.583,0,0,0,1.789,1.5,24.822,24.822,0,0,0,6.333-2.09s5.1-1.2,6.887-3.594,8.391-15.278,8.391-15.278,17.415-11.082,23.638-18.555a68.57,68.57,0,0,0,11.383-19.759c.887-2.992,11.969-36.208,11.668-41.607s-2.992-6.333-2.992-6.333" transform="translate(13.094 -90.014)" fill="#fff" stroke="#263238" stroke-linecap="round" stroke-linejoin="round" stroke-width="1"/>
    <path id="Path_7426" data-name="Path 7426" d="M303.75,205.81c-.982,1.124-.95,1.282-5.1,3.166-5.082,2.407-11.668,3.594-12.571,5.1s-4.2,8.676-5.082,9.578,1.187,2.691,2.391,1.488,5.383-5.985,5.383-5.985l-5.082,11.969a1.583,1.583,0,0,0,1.789,1.5,24.825,24.825,0,0,0,6.333-2.09s5.1-1.2,6.887-3.594,8.391-15.278,8.391-15.278,1.077-.681,2.818-1.837A12.317,12.317,0,0,0,303.75,205.81Z" transform="translate(13.094 -60.439)" fill="#fff" stroke="#263238" stroke-linecap="round" stroke-linejoin="round" stroke-width="1"/>
    <path id="Path_7427" data-name="Path 7427" d="M400.859,214.806s-6.618,12.492-7.837,17.415-3.166,10.291-3.166,10.291-12.254-1.963-22.783-3.166-25.474-3.926-29.163-4.655-10.528-2.707-12-1.472-.491.982,1.235,1.71a9.309,9.309,0,0,0,4.4.253s-2.454.728-5.145,1.71-7.6,2.691-8.328,3.673.982,4.417,3.673,4.417a48.341,48.341,0,0,1,6.127,0c1.472.237,2.2,1.71,7.109,1.71s11.747-3.926,11.747-3.926,23.036,10.544,36.018,12.745,14.946-.728,20.344-4.908,21.057-29.875,19.838-35.021A29.956,29.956,0,0,0,419,206.51" transform="translate(34.743 -60.031)" fill="#263238" stroke="#263238" stroke-linecap="round" stroke-linejoin="round" stroke-width="1"/>
    <path id="Path_7428" data-name="Path 7428" d="M352.006,227.465c-6.412-1.045-12.033-2.074-14.106-2.486-3.673-.744-10.529-2.707-12-1.472s-.491.982,1.235,1.71a9.309,9.309,0,0,0,4.4.253s-2.454.728-5.145,1.71-7.6,2.691-8.328,3.673.982,4.417,3.673,4.417a48.369,48.369,0,0,1,6.127,0c1.472.237,2.2,1.71,7.109,1.71s11.747-3.926,11.747-3.926,1.8.823,4.671,2.058Z" transform="translate(34.737 -50.351)" fill="#fff" stroke="#263238" stroke-linecap="round" stroke-linejoin="round" stroke-width="1"/>
    <path id="Path_7429" data-name="Path 7429" d="M341.093,187.92s-11.51,5.636-15.927,9.5-15.436,28.656-15.674,30.366,8.328,2.707,9.309,2.216,18.381-20.582,22.783-24.017a6.333,6.333,0,0,0,2.454-7.584" transform="translate(29.834 -70.873)" fill="#263238" stroke="#263238" stroke-linecap="round" stroke-linejoin="round" stroke-width="1"/>
    <path id="Path_7430" data-name="Path 7430" d="M319.171,210.973A98.33,98.33,0,0,0,308.39,213.9c-2.945,1.235-9.8,10.053-8.09,10.544s6.333-5.145,6.333-5.145a42.752,42.752,0,0,0-4.164,7.346c-.491,1.963-.982,6.333.982,5.636s5.874-6.127,5.874-6.127,4.892-2.945,8.819-2.945,6.618-7.346,6.618-7.346,3.167-3.166,1.963-6.618S319.171,210.973,319.171,210.973Z" transform="translate(24.318 -59.127)" fill="#fff" stroke="#263238" stroke-linecap="round" stroke-linejoin="round" stroke-width="1"/>
    <path id="Path_7431" data-name="Path 7431" d="M319.379,209.848a6.475,6.475,0,0,1-5.145-2.216c-1.963-2.438-3.166,0-3.166,2.454a3.467,3.467,0,0,0,2.438,3.166s-4.164,3.926-1.71,5.145a4.955,4.955,0,0,0,4.908-.728" transform="translate(30.729 -59.966)" fill="#fff" stroke="#263238" stroke-linecap="round" stroke-linejoin="round" stroke-width="1"/>
    <path id="Path_7432" data-name="Path 7432" d="M385.69,250.2s-12.143-2.312-16.481-3.166-18.508,4.924-22.545,6.333,0,2.612,4.338,3.467,13-.855,13-.855-9.5,4.037-7.219,4.623,6.935-.586,10.988-.871,8.09-4.053,8.09-4.053,19.379,9.5,21.69,9.5,5.779-6.935.855-9.832A69.656,69.656,0,0,0,385.69,250.2Z" transform="translate(50.545 -36.448)" fill="#fff" stroke="#263238" stroke-linecap="round" stroke-linejoin="round" stroke-width="1"/>
    <path id="Path_7433" data-name="Path 7433" d="M384.009,257.971A98.745,98.745,0,0,0,364.06,278.2c-8.391,11.858-9.832,35.844-8.09,42.747s2.881,15.025,11.272,20.582,14.455,7.805,28.91,0,21.975-33.818,20.582-53.829-13.584-33.833-19.949-35.559S384.009,257.971,384.009,257.971Z" transform="translate(56.564 -33.566)" fill="#fff" stroke="#263238" stroke-linecap="round" stroke-linejoin="round" stroke-width="1"/>
    <path id="Path_7434" data-name="Path 7434" d="M377.536,258.554s-5.209.586-7.805,4.053-1.742,4.623,0,5.494a4.465,4.465,0,0,1,2.011,3.166s-6.064,9.832-2.882,11.842,17.336-4.623,21.1-9.5,2.026-13.014-.285-15.326S377.536,258.554,377.536,258.554Z" transform="translate(63.923 -30.396)" fill="#fff" stroke="#263238" stroke-linecap="round" stroke-linejoin="round" stroke-width="1"/>
    <path id="Path_7435" data-name="Path 7435" d="M375.294,234.673a27.8,27.8,0,0,1-5.779,5.193c-2.311,1.156-5.193,2.311-2.882,4.053a36.4,36.4,0,0,1,3.752,3.166s-2.9,9.5-1.726,15.025a4.971,4.971,0,0,0,6.333,4.053s-.871,14.455-2.026,18.793,4.338,4.037,8.676,1.441,4.924-13.3,6.65-21.1,12.143-17.051,4.924-25.727S375.294,234.673,375.294,234.673Z" transform="translate(62.666 -44.085)" fill="#fff" stroke="#263238" stroke-linecap="round" stroke-linejoin="round" stroke-width="1"/>
    <path id="Path_7436" data-name="Path 7436" d="M421.267,231.6c-10.7-10.988-26.915-8.391-29.195-7.805,0,0-9.024-2.2-14.249-1.33s-7.172,15.832-3.99,24.16a13.7,13.7,0,0,0,6.064,7.061c-.522-.459-3.61-3.372-.633-5.684a13.835,13.835,0,0,1,6.111-2.882s-2.517,8.264-1.441,9.721c4.4,5.858-15.389,33.485-16.165,33.042,0,0,5.779,3.261,13.014,6.729,15.975,7.679,34.831-8.708,40.752-22.545C426.254,261.143,430.8,241.385,421.267,231.6Z" transform="translate(63.826 -50.845)" fill="#263238" stroke="#263238" stroke-linecap="round" stroke-linejoin="round" stroke-width="1"/>
    <path id="Path_7437" data-name="Path 7437" d="M308.617,254.18l-14.6,61.065,29.86,13.6,11.288-57.408Z" transform="translate(20.813 -32.229)" fill="#fff" stroke="#263238" stroke-linecap="round" stroke-linejoin="round" stroke-width="1"/>
    <path id="Path_7438" data-name="Path 7438" d="M308.348,258.17,296.22,308.912l24.809,11.3,9.388-47.718Z" transform="translate(22.096 -29.902)" fill="#263238" stroke="#263238" stroke-linecap="round" stroke-linejoin="round" stroke-width="1"/>
    <path id="Path_7439" data-name="Path 7439" d="M324.168,265.08l40.815,1.995-7.964,58.737-44.14-3.325Z" transform="translate(31.813 -25.872)" fill="#fff" stroke="#263238" stroke-linecap="round" stroke-linejoin="round" stroke-width="1"/>
    <path id="Path_7440" data-name="Path 7440" d="M327.6,282.289l2.961.127.3-1.9-2.913-.206Z" transform="translate(40.398 -16.99)" fill="#263238"/>
    <path id="Path_7441" data-name="Path 7441" d="M333.445,291.117l.475-2.9-4.116-.19-.443,2.8Z" transform="translate(41.424 -12.487)" fill="#263238"/>
    <path id="Path_7442" data-name="Path 7442" d="M328.711,277.156l.364-2.042-3.7-.253L324.99,277Z" transform="translate(38.876 -20.168)" fill="#263238"/>
    <path id="Path_7443" data-name="Path 7443" d="M328.5,277.1l2.818.127.3-1.932-2.771-.19Z" transform="translate(40.923 -20.022)" fill="#263238"/>
    <path id="Path_7444" data-name="Path 7444" d="M327.12,285.344l3.008.222.428-2.739-2.992-.127Z" transform="translate(40.118 -15.596)" fill="#263238"/>
    <path id="Path_7445" data-name="Path 7445" d="M335.2,280.68l.475-2.834-4.259-.206-.428,2.755Z" transform="translate(42.375 -18.547)" fill="#263238"/>
    <path id="Path_7446" data-name="Path 7446" d="M325.91,272.192l3.689.174.538-3.166-3.657-.19Z" transform="translate(39.412 -23.58)" fill="#263238"/>
    <path id="Path_7447" data-name="Path 7447" d="M332.076,272.467l.491-3.135-2.628-.142-.538,3.151Z" transform="translate(41.447 -23.475)" fill="#263238"/>
    <path id="Path_7448" data-name="Path 7448" d="M325.873,272.16l-.443,2.486,3.689.253.443-2.581Z" transform="translate(39.132 -21.743)" fill="#263238"/>
    <path id="Path_7449" data-name="Path 7449" d="M331.335,277.637l-2.866-.127-.459,2.628,2.9.206Z" transform="translate(40.637 -18.623)" fill="#263238"/>
    <path id="Path_7450" data-name="Path 7450" d="M332.092,272.447l-2.723-.127-.459,2.612,2.755.19Z" transform="translate(41.162 -21.649)" fill="#263238"/>
    <path id="Path_7451" data-name="Path 7451" d="M334.328,285.9l.475-2.866-4.2-.19-.428,2.771Z" transform="translate(41.902 -15.514)" fill="#263238"/>
    <path id="Path_7452" data-name="Path 7452" d="M323.49,285.256l-3.024-.206-.4,2.2,3.04.142Z" transform="translate(36.006 -14.225)" fill="#263238"/>
    <path id="Path_7453" data-name="Path 7453" d="M323.061,287.723l-3.04-.143L319.61,290l3.008.222Z" transform="translate(35.738 -12.75)" fill="#263238"/>
    <path id="Path_7454" data-name="Path 7454" d="M322.558,290.456l-3.008-.206-.38,2.185,3.008.142Z" transform="translate(35.481 -11.192)" fill="#263238"/>
    <path id="Path_7455" data-name="Path 7455" d="M322.141,292.913l-3.024-.142-.427,2.438,2.992.222Z" transform="translate(35.201 -9.723)" fill="#263238"/>
    <path id="Path_7456" data-name="Path 7456" d="M323.987,282.533l-3.056-.143-.412,2.407,3.024.222Z" transform="translate(36.269 -15.776)" fill="#263238"/>
    <path id="Path_7457" data-name="Path 7457" d="M324.913,277.342l-3.071-.142-.412,2.391,3.056.206Z" transform="translate(36.799 -18.803)" fill="#263238"/>
    <path id="Path_7458" data-name="Path 7458" d="M325.855,272.152l-3.1-.142-.412,2.375,3.071.206Z" transform="translate(37.33 -21.83)" fill="#263238"/>
    <path id="Path_7459" data-name="Path 7459" d="M324.415,280.056l-3.04-.206-.4,2.217,3.056.142Z" transform="translate(36.537 -17.258)" fill="#263238"/>
    <path id="Path_7460" data-name="Path 7460" d="M325.357,274.862l-3.071-.222-.4,2.248,3.071.142Z" transform="translate(37.067 -20.296)" fill="#263238"/>
    <path id="Path_7461" data-name="Path 7461" d="M336.55,272.656l-4.322-.206-.428,2.723,4.291.3Z" transform="translate(42.847 -21.574)" fill="#263238"/>
    <path id="Path_7462" data-name="Path 7462" d="M321.7,295.656l-2.976-.206-.6,3.356,2.977.3Z" transform="translate(34.869 -8.16)" fill="#263238"/>
    <path id="Path_7463" data-name="Path 7463" d="M330.63,282.388l4.2.19.3-1.773-4.211-.285Z" transform="translate(42.165 -16.867)" fill="#263238"/>
    <path id="Path_7464" data-name="Path 7464" d="M329,292.751l4.085.19.285-1.726-4.085-.285Z" transform="translate(41.214 -10.796)" fill="#263238"/>
    <path id="Path_7465" data-name="Path 7465" d="M329.81,287.567l4.148.19.285-1.742-4.132-.285Z" transform="translate(41.687 -13.828)" fill="#263238"/>
    <path id="Path_7466" data-name="Path 7466" d="M330.1,285.716l-3.056-.206-.348,1.963,3.1.142Z" transform="translate(39.873 -13.957)" fill="#263238"/>
    <path id="Path_7467" data-name="Path 7467" d="M333.046,293.41l-4.053-.19-.443,2.818,4.021.285Z" transform="translate(40.952 -9.46)" fill="#263238"/>
    <path id="Path_7468" data-name="Path 7468" d="M328.592,296.14l-.6,3.847,3.958.4.649-3.958Z" transform="translate(40.625 -7.757)" fill="#263238"/>
    <path id="Path_7469" data-name="Path 7469" d="M324.51,279.852l3.721.253.459-2.6-3.736-.158Z" transform="translate(38.596 -18.716)" fill="#263238"/>
    <path id="Path_7470" data-name="Path 7470" d="M325.9,272.191l.57-3.182-3.119-.158-.554,3.214Z" transform="translate(37.598 -23.673)" fill="#263238"/>
    <path id="Path_7471" data-name="Path 7471" d="M331.44,277.194l4.275.206.285-1.789-4.275-.3Z" transform="translate(42.637 -19.906)" fill="#263238"/>
    <path id="Path_7472" data-name="Path 7472" d="M332.25,272.459l4.338.206.507-3.1-4.37-.222Z" transform="translate(43.11 -23.387)" fill="#263238"/>
    <path id="Path_7473" data-name="Path 7473" d="M329.8,288.038l-3.119-.158-.475,2.676,3.166.222Z" transform="translate(39.587 -12.575)" fill="#263238"/>
    <path id="Path_7474" data-name="Path 7474" d="M326.919,287.894l-3.816-.174-.443,2.549,3.8.253Z" transform="translate(37.517 -12.668)" fill="#263238"/>
    <path id="Path_7475" data-name="Path 7475" d="M326.142,290.71l-.332,1.932,3.23.158.3-1.868Z" transform="translate(39.354 -10.924)" fill="#263238"/>
    <path id="Path_7476" data-name="Path 7476" d="M329.046,293.228l-3.261-.158-.475,2.707,3.309.222Z" transform="translate(39.062 -9.548)" fill="#263238"/>
    <path id="Path_7477" data-name="Path 7477" d="M321.74,295.475l3.831.269.459-2.66-3.847-.174Z" transform="translate(36.98 -9.641)" fill="#263238"/>
    <path id="Path_7478" data-name="Path 7478" d="M326.41,290.729l-3.816-.269-.364,2.074,3.831.174Z" transform="translate(37.266 -11.07)" fill="#263238"/>
    <path id="Path_7479" data-name="Path 7479" d="M323.15,287.35l3.8.174.348-1.995-3.784-.269Z" transform="translate(37.802 -14.103)" fill="#263238"/>
    <path id="Path_7480" data-name="Path 7480" d="M321.757,295.66l-.617,3.5,3.847.4.633-3.626Z" transform="translate(36.63 -8.037)" fill="#263238"/>
    <path id="Path_7481" data-name="Path 7481" d="M328.678,296.147l-3.325-.237-.633,3.689,3.372.332Z" transform="translate(38.718 -7.891)" fill="#263238"/>
    <path id="Path_7482" data-name="Path 7482" d="M328.186,280.329l-3.736-.269-.38,2.106,3.768.174Z" transform="translate(38.339 -17.135)" fill="#263238"/>
    <path id="Path_7483" data-name="Path 7483" d="M327.807,282.7l-3.768-.174-.459,2.533,3.768.253Z" transform="translate(38.053 -15.695)" fill="#263238"/>
    <path id="Path_7484" data-name="Path 7484" d="M414.056,288.78s-3.721.348-10.053,5.494-31.506,49.08-31.506,49.08S349.65,329.1,343.871,325.147s-10.4-11.272-13.584-15.611-3.768-4.924-8.106-5.209-7.5-3.166-8.09-1.156,1.156,2.9,2.311,3.467a8.8,8.8,0,0,0,3.167.586,11.082,11.082,0,0,1-7.805-1.742c-4.338-2.6-5.494-3.166-5.494-.285s3.166,7.52,5.494,10.4,15.611,4.053,15.611,4.053a246.511,246.511,0,0,0,16.2,26.915c8.66,12.143,27.168,25.157,32.377,23.416s32.662-36.129,40.182-45.676,17.415-20.819,15.025-27.168" transform="translate(27.958 -12.05)" fill="#fff" stroke="#263238" stroke-linecap="round" stroke-linejoin="round" stroke-width="1"/>
    <path id="Path_7485" data-name="Path 7485" d="M336.042,312.432c-2.264-2.834-4.211-5.731-5.795-7.916-3.167-4.338-3.768-4.924-8.106-5.209s-7.5-3.167-8.09-1.156,1.156,2.9,2.311,3.467a8.8,8.8,0,0,0,3.166.586,11.082,11.082,0,0,1-7.805-1.741c-4.338-2.6-5.494-3.167-5.494-.285s3.166,7.52,5.494,10.4,15.611,4.053,15.611,4.053.586,1.14,1.583,2.992A17.082,17.082,0,0,1,336.042,312.432Z" transform="translate(27.934 -6.997)" fill="#fff" stroke="#263238" stroke-linecap="round" stroke-linejoin="round" stroke-width="1"/>
  </g>
</svg>
